<?xml version="1.0" standalone="no"?>
<!DOCTYPE svg PUBLIC "-//W3C//DTD SVG 20010904//EN"
 "http://www.w3.org/TR/2001/REC-SVG-20010904/DTD/svg10.dtd">
<svg version="1.0" xmlns="http://www.w3.org/2000/svg"
 width="50.000000pt" height="50.000000pt" viewBox="0 0 50.000000 50.000000"
 preserveAspectRatio="xMidYMid meet">

<g transform="translate(0.000000,50.000000) scale(0.100000,-0.100000)"
fill="#000000" stroke="none">
<path d="M30 350 c0 -91 3 -110 15 -110 12 0 15 -18 15 -100 l0 -100 190 0
190 0 0 100 c0 82 3 100 15 100 12 0 15 19 15 110 l0 110 -220 0 -220 0 0
-110z m420 0 l0 -90 -63 0 -63 0 -33 55 c-18 30 -37 55 -41 55 -4 0 -23 -25
-41 -55 l-33 -55 -63 0 -63 0 0 90 0 90 200 0 200 0 0 -90z m-164 -65 c26 -45
26 -45 80 -45 l54 0 0 -90 0 -90 -60 0 -60 0 0 54 c0 58 -16 86 -50 86 -34 0
-50 -28 -50 -86 l0 -54 -60 0 -60 0 0 90 0 90 53 0 c51 0 53 1 80 45 16 25 33
45 37 45 5 0 21 -20 36 -45z m-8 -167 l3 -58 -31 0 c-30 0 -30 1 -30 53 0 60
5 69 35 65 17 -3 20 -11 23 -60z"/>
<path d="M100 155 l0 -45 40 0 40 0 0 45 0 45 -40 0 -40 0 0 -45z m60 0 c0
-18 -5 -25 -20 -25 -15 0 -20 7 -20 25 0 18 5 25 20 25 15 0 20 -7 20 -25z"/>
<path d="M320 155 l0 -45 40 0 40 0 0 45 0 45 -40 0 -40 0 0 -45z m60 0 c0
-18 -5 -25 -20 -25 -15 0 -20 7 -20 25 0 18 5 25 20 25 15 0 20 -7 20 -25z"/>
</g>
</svg>
